<svg width="36" height="36" viewBox="0 0 36 36" fill="none" xmlns="http://www.w3.org/2000/svg">
<circle cx="18" cy="18" r="17.5" fill="#4E73DF" stroke="#4E73DF"/>
<g clip-path="url(#clip0_132_7177)">
<path d="M25.3929 16.3929H19.9286C19.8433 16.3929 19.7616 16.359 19.7013 16.2987C19.641 16.2384 19.6071 16.1567 19.6071 16.0714V10.6071C19.6071 9.7196 18.8875 9 18 9C17.1125 9 16.3929 9.7196 16.3929 10.6071V16.0714C16.3929 16.1567 16.359 16.2384 16.2987 16.2987C16.2384 16.359 16.1567 16.3929 16.0714 16.3929H10.6071C9.7196 16.3929 9 17.1125 9 18C9 18.8875 9.7196 19.6071 10.6071 19.6071H16.0714C16.1567 19.6071 16.2384 19.641 16.2987 19.7013C16.359 19.7616 16.3929 19.8433 16.3929 19.9286V25.3929C16.3929 26.2804 17.1125 27 18 27C18.8875 27 19.6071 26.2804 19.6071 25.3929V19.9286C19.6071 19.8433 19.641 19.7616 19.7013 19.7013C19.7616 19.641 19.8433 19.6071 19.9286 19.6071H25.3929C26.2804 19.6071 27 18.8875 27 18C27 17.1125 26.2804 16.3929 25.3929 16.3929Z" fill="white"/>
</g>
<defs>
<clipPath id="clip0_132_7177">
<rect width="18" height="18" fill="white" transform="translate(9 9)"/>
</clipPath>
</defs>
</svg>
