<svg width="53" height="52" viewBox="0 0 53 52" fill="none" xmlns="http://www.w3.org/2000/svg">
<circle cx="26.6758" cy="26" r="25.5" stroke="#4E73DF"/>
<path d="M31.6033 16.4646C31.3778 17.1564 31.0131 17.7976 30.5736 18.3308V18.3318C30.1301 18.8681 29.5376 19.3423 28.8785 19.6567C28.2736 19.9452 27.6106 20.1006 26.9508 20.0492L26.7488 20.0334L26.7223 19.8324C26.6365 19.184 26.7355 18.5275 26.944 17.9201C27.1866 17.2132 27.5796 16.5682 28.0013 16.0795L28.0012 16.0794C28.4376 15.5682 29.0227 15.1235 29.6494 14.8013C30.2782 14.4779 30.9536 14.2757 31.5682 14.2507L31.8006 14.2412L31.826 14.4733C31.9005 15.1522 31.8099 15.8303 31.6033 16.4646Z" fill="#424242"/>
<path d="M35.8755 22.5635C35.6527 22.7013 33.4998 24.0335 33.5265 26.7188C33.5546 29.956 36.2995 31.0782 36.451 31.1401H36.452L36.4585 31.1428L36.6739 31.232L36.6002 31.4524C36.5958 31.4655 36.6007 31.4515 36.5944 31.4721C36.5243 31.6964 36.0495 33.2175 34.977 34.7848C34.4903 35.4957 33.9945 36.2055 33.409 36.7531C32.8028 37.32 32.1105 37.7027 31.2553 37.7185C30.4492 37.7337 29.9215 37.5053 29.3729 37.268C28.8498 37.0416 28.3058 36.8062 27.4545 36.8062C26.5602 36.8062 25.9885 37.0497 25.4379 37.2843C24.9196 37.5052 24.4183 37.7187 23.6961 37.7475H23.6951C22.8612 37.7785 22.1381 37.372 21.4955 36.7699C20.8806 36.1939 20.342 35.4396 19.8511 34.7296C18.743 33.1296 17.7793 30.8016 17.4816 28.4344C17.2367 26.4873 17.4414 24.5093 18.3828 22.8758C18.9083 21.9618 19.6428 21.2159 20.5015 20.6954C21.3563 20.1773 22.3343 19.8825 23.3523 19.8672C24.2435 19.8511 25.0839 20.1845 25.8193 20.4764C26.3397 20.6829 26.8033 20.8669 27.1509 20.8669C27.458 20.8669 27.9106 20.6884 28.4383 20.4804C29.3295 20.129 30.4198 19.6992 31.5727 19.8138C32.0568 19.8349 33.0653 19.9509 34.0961 20.5095C34.7528 20.8654 35.4189 21.3997 35.9665 22.2011L36.1108 22.4124L35.8952 22.5517C35.8836 22.5591 35.8949 22.5515 35.8755 22.5635Z" fill="#424242"/>
</svg>
