<svg width="24" height="24" viewBox="0 0 24 24" fill="none" xmlns="http://www.w3.org/2000/svg">
<circle cx="12" cy="12" r="12" fill="#4E73DF"/>
<path d="M9.29961 6.3002C9.29961 5.96882 9.03098 5.7002 8.69961 5.7002C8.36824 5.7002 8.09961 5.96882 8.09961 6.3002V6.9002C8.09961 7.23157 8.36824 7.5002 8.69961 7.5002C9.03098 7.5002 9.29961 7.23157 9.29961 6.9002V6.3002Z" fill="white"/>
<path d="M15.8992 6.3002C15.8992 5.96882 15.6306 5.7002 15.2992 5.7002C14.9678 5.7002 14.6992 5.96882 14.6992 6.3002V6.9002C14.6992 7.23157 14.9678 7.5002 15.2992 7.5002C15.6306 7.5002 15.8992 7.23157 15.8992 6.9002V6.3002Z" fill="white"/>
<path d="M6 10.2006V17.1006C6 17.4188 6.12643 17.7241 6.35147 17.9491C6.57652 18.1742 6.88174 18.3006 7.2 18.3006H16.8C17.1183 18.3006 17.4235 18.1742 17.6485 17.9491C17.8736 17.7241 18 17.4188 18 17.1006V10.2006H6ZM9.6 16.2006C9.6 16.3597 9.53679 16.5123 9.42426 16.6249C9.31174 16.7374 9.15913 16.8006 9 16.8006H8.4C8.24087 16.8006 8.08826 16.7374 7.97574 16.6249C7.86321 16.5123 7.8 16.3597 7.8 16.2006V15.6006C7.8 15.4415 7.86321 15.2888 7.97574 15.1763C8.08826 15.0638 8.24087 15.0006 8.4 15.0006H9C9.15913 15.0006 9.31174 15.0638 9.42426 15.1763C9.53679 15.2888 9.6 15.4415 9.6 15.6006V16.2006ZM9.6 12.9006C9.6 13.0597 9.53679 13.2123 9.42426 13.3248C9.31174 13.4374 9.15913 13.5006 9 13.5006H8.4C8.24087 13.5006 8.08826 13.4374 7.97574 13.3248C7.86321 13.2123 7.8 13.0597 7.8 12.9006V12.3006C7.8 12.1415 7.86321 11.9888 7.97574 11.8763C8.08826 11.7638 8.24087 11.7006 8.4 11.7006H9C9.15913 11.7006 9.31174 11.7638 9.42426 11.8763C9.53679 11.9888 9.6 12.1415 9.6 12.3006V12.9006ZM12.9 16.2006C12.9 16.3597 12.8368 16.5123 12.7243 16.6249C12.6117 16.7374 12.4591 16.8006 12.3 16.8006H11.7C11.5409 16.8006 11.3883 16.7374 11.2757 16.6249C11.1632 16.5123 11.1 16.3597 11.1 16.2006V15.6006C11.1 15.4415 11.1632 15.2888 11.2757 15.1763C11.3883 15.0638 11.5409 15.0006 11.7 15.0006H12.3C12.4591 15.0006 12.6117 15.0638 12.7243 15.1763C12.8368 15.2888 12.9 15.4415 12.9 15.6006V16.2006ZM12.9 12.9006C12.9 13.0597 12.8368 13.2123 12.7243 13.3248C12.6117 13.4374 12.4591 13.5006 12.3 13.5006H11.7C11.5409 13.5006 11.3883 13.4374 11.2757 13.3248C11.1632 13.2123 11.1 13.0597 11.1 12.9006V12.3006C11.1 12.1415 11.1632 11.9888 11.2757 11.8763C11.3883 11.7638 11.5409 11.7006 11.7 11.7006H12.3C12.4591 11.7006 12.6117 11.7638 12.7243 11.8763C12.8368 11.9888 12.9 12.1415 12.9 12.3006V12.9006ZM16.2 16.2006C16.2 16.3597 16.1368 16.5123 16.0243 16.6249C15.9117 16.7374 15.7591 16.8006 15.6 16.8006H15C14.8409 16.8006 14.6883 16.7374 14.5757 16.6249C14.4632 16.5123 14.4 16.3597 14.4 16.2006V15.6006C14.4 15.4415 14.4632 15.2888 14.5757 15.1763C14.6883 15.0638 14.8409 15.0006 15 15.0006H15.6C15.7591 15.0006 15.9117 15.0638 16.0243 15.1763C16.1368 15.2888 16.2 15.4415 16.2 15.6006V16.2006ZM16.2 12.9006C16.2 13.0597 16.1368 13.2123 16.0243 13.3248C15.9117 13.4374 15.7591 13.5006 15.6 13.5006H15C14.8409 13.5006 14.6883 13.4374 14.5757 13.3248C14.4632 13.2123 14.4 13.0597 14.4 12.9006V12.3006C14.4 12.1415 14.4632 11.9888 14.5757 11.8763C14.6883 11.7638 14.8409 11.7006 15 11.7006H15.6C15.7591 11.7006 15.9117 11.7638 16.0243 11.8763C16.1368 11.9888 16.2 12.1415 16.2 12.3006V12.9006ZM18 9.60059V7.80059C18 7.48233 17.8736 7.1771 17.6485 6.95206C17.4235 6.72701 17.1183 6.60059 16.8 6.60059H16.5V6.90059C16.5 7.56239 15.9618 8.10059 15.3 8.10059C14.6382 8.10059 14.1 7.56239 14.1 6.90059V6.60059H9.9V6.90059C9.9 7.56239 9.3618 8.10059 8.7 8.10059C8.0382 8.10059 7.5 7.56239 7.5 6.90059V6.60059H7.2C6.88174 6.60059 6.57652 6.72701 6.35147 6.95206C6.12643 7.1771 6 7.48233 6 7.80059V9.60059H18Z" fill="white"/>
</svg>
