<svg width="32" height="32" viewBox="0 0 32 32" fill="none" xmlns="http://www.w3.org/2000/svg">
<circle cx="16" cy="16" r="15.5" fill="#4E73DF" stroke="#D7DFF8"/>
<path d="M18.903 17.2146C18.903 18.8153 17.6008 20.1176 16 20.1176C14.3992 20.1176 13.0975 18.8153 13.0975 17.2146C13.0975 15.6138 14.3992 14.3116 16 14.3116C17.6008 14.3116 18.903 15.6143 18.903 17.2146ZM25 13.0925V21.3377C25 21.8655 24.7903 22.3718 24.417 22.7451C24.0438 23.1183 23.5375 23.328 23.0096 23.328H8.99038C8.4625 23.328 7.95624 23.1183 7.58297 22.7451C7.2097 22.3718 7 21.8655 7 21.3377V13.0925C7 12.5646 7.2097 12.0584 7.58297 11.6851C7.95624 11.3118 8.4625 11.1021 8.99038 11.1021H11.4385V10.4135C11.4385 9.95156 11.622 9.50858 11.9486 9.18197C12.2753 8.85536 12.7182 8.67188 13.1801 8.67188H18.8199C19.2818 8.67188 19.7247 8.85536 20.0514 9.18197C20.378 9.50858 20.5615 9.95156 20.5615 10.4135V11.1016H23.0096C24.1088 11.1021 25 11.9933 25 13.0925ZM20.3958 17.2146C20.3958 14.7908 18.4238 12.8188 16 12.8188C13.5767 12.8188 11.6047 14.7908 11.6047 17.2146C11.6047 19.6384 13.5767 21.6103 16 21.6103C18.4238 21.6103 20.3958 19.6384 20.3958 17.2146Z" fill="white"/>
</svg>
