<svg width="24" height="24" viewBox="0 0 24 24" fill="none" xmlns="http://www.w3.org/2000/svg">
<circle cx="12" cy="12" r="12" fill="#4E73DF"/>
<g clip-path="url(#clip0_132_5980)">
<path d="M9.375 7V7.375H8.625V7C8.625 6.90054 8.66451 6.80516 8.73483 6.73483C8.80516 6.66451 8.90054 6.625 9 6.625C9.09946 6.625 9.19484 6.66451 9.26517 6.73483C9.33549 6.80516 9.375 6.90054 9.375 7ZM11.875 7V7.375H11.125V7C11.125 6.90054 11.1645 6.80516 11.2348 6.73483C11.3052 6.66451 11.4005 6.625 11.5 6.625C11.5995 6.625 11.6948 6.66451 11.7652 6.73483C11.8355 6.80516 11.875 6.90054 11.875 7ZM14.375 7V7.375H13.625V7C13.625 6.90054 13.6645 6.80516 13.7348 6.73483C13.8052 6.66451 13.9005 6.625 14 6.625C14.0995 6.625 14.1948 6.66451 14.2652 6.73483C14.3355 6.80516 14.375 6.90054 14.375 7ZM15.5 7.375H14.375V8C14.375 8.09946 14.3355 8.19484 14.2652 8.26517C14.1948 8.33549 14.0995 8.375 14 8.375C13.9005 8.375 13.8052 8.33549 13.7348 8.26517C13.6645 8.19484 13.625 8.09946 13.625 8V7.375H11.875V8C11.875 8.09946 11.8355 8.19484 11.7652 8.26517C11.6948 8.33549 11.5995 8.375 11.5 8.375C11.4005 8.375 11.3052 8.33549 11.2348 8.26517C11.1645 8.19484 11.125 8.09946 11.125 8V7.375H9.375V8C9.375 8.09946 9.33549 8.19484 9.26517 8.26517C9.19484 8.33549 9.09946 8.375 9 8.375C8.90054 8.375 8.80516 8.33549 8.73483 8.26517C8.66451 8.19484 8.625 8.09946 8.625 8V7.375H7.5C7.26834 7.37631 7.04654 7.46892 6.88273 7.63273C6.71892 7.79654 6.62631 8.01834 6.625 8.25V15.25C6.62631 15.4817 6.71892 15.7035 6.88273 15.8673C7.04654 16.0311 7.26834 16.1237 7.5 16.125H12.385C12.2948 15.8421 12.2492 15.5469 12.25 15.25C12.25 14.4544 12.5661 13.6913 13.1287 13.1287C13.6913 12.5661 14.4544 12.25 15.25 12.25C15.6363 12.2492 16.0188 12.3257 16.375 12.475V8.25C16.3737 8.01834 16.2811 7.79654 16.1173 7.63273C15.9535 7.46892 15.7317 7.37631 15.5 7.375ZM9 14.25C8.90111 14.25 8.80444 14.2207 8.72221 14.1657C8.63999 14.1108 8.5759 14.0327 8.53806 13.9413C8.50022 13.85 8.49031 13.7494 8.50961 13.6525C8.5289 13.5555 8.57652 13.4664 8.64645 13.3964C8.71637 13.3265 8.80546 13.2789 8.90245 13.2596C8.99945 13.2403 9.09998 13.2502 9.19134 13.2881C9.2827 13.3259 9.36079 13.39 9.41573 13.4722C9.47068 13.5544 9.5 13.6511 9.5 13.75C9.5 13.8826 9.44732 14.0098 9.35355 14.1036C9.25979 14.1973 9.13261 14.25 9 14.25ZM9 12.5C8.90111 12.5 8.80444 12.4707 8.72221 12.4157C8.63999 12.3608 8.5759 12.2827 8.53806 12.1913C8.50022 12.1 8.49031 11.9994 8.50961 11.9025C8.5289 11.8055 8.57652 11.7164 8.64645 11.6464C8.71637 11.5765 8.80546 11.5289 8.90245 11.5096C8.99945 11.4903 9.09998 11.5002 9.19134 11.5381C9.2827 11.5759 9.36079 11.64 9.41573 11.7222C9.47068 11.8044 9.5 11.9011 9.5 12C9.5 12.1326 9.44732 12.2598 9.35355 12.3536C9.25979 12.4473 9.13261 12.5 9 12.5ZM9 10.75C8.90111 10.75 8.80444 10.7207 8.72221 10.6657C8.63999 10.6108 8.5759 10.5327 8.53806 10.4413C8.50022 10.35 8.49031 10.2494 8.50961 10.1525C8.5289 10.0555 8.57652 9.96637 8.64645 9.89645C8.71637 9.82652 8.80546 9.7789 8.90245 9.75961C8.99945 9.74031 9.09998 9.75022 9.19134 9.78806C9.2827 9.8259 9.36079 9.88999 9.41573 9.97221C9.47068 10.0544 9.5 10.1511 9.5 10.25C9.5 10.3826 9.44732 10.5098 9.35355 10.6036C9.25979 10.6973 9.13261 10.75 9 10.75ZM11.5 14.25C11.4011 14.25 11.3044 14.2207 11.2222 14.1657C11.14 14.1108 11.0759 14.0327 11.0381 13.9413C11.0002 13.85 10.9903 13.7494 11.0096 13.6525C11.0289 13.5555 11.0765 13.4664 11.1464 13.3964C11.2164 13.3265 11.3055 13.2789 11.4025 13.2596C11.4994 13.2403 11.6 13.2502 11.6913 13.2881C11.7827 13.3259 11.8608 13.39 11.9157 13.4722C11.9707 13.5544 12 13.6511 12 13.75C12 13.8826 11.9473 14.0098 11.8536 14.1036C11.7598 14.1973 11.6326 14.25 11.5 14.25ZM11.5 12.5C11.4011 12.5 11.3044 12.4707 11.2222 12.4157C11.14 12.3608 11.0759 12.2827 11.0381 12.1913C11.0002 12.1 10.9903 11.9994 11.0096 11.9025C11.0289 11.8055 11.0765 11.7164 11.1464 11.6464C11.2164 11.5765 11.3055 11.5289 11.4025 11.5096C11.4994 11.4903 11.6 11.5002 11.6913 11.5381C11.7827 11.5759 11.8608 11.64 11.9157 11.7222C11.9707 11.8044 12 11.9011 12 12C12 12.1326 11.9473 12.2598 11.8536 12.3536C11.7598 12.4473 11.6326 12.5 11.5 12.5ZM11.5 10.75C11.4011 10.75 11.3044 10.7207 11.2222 10.6657C11.14 10.6108 11.0759 10.5327 11.0381 10.4413C11.0002 10.35 10.9903 10.2494 11.0096 10.1525C11.0289 10.0555 11.0765 9.96637 11.1464 9.89645C11.2164 9.82652 11.3055 9.7789 11.4025 9.75961C11.4994 9.74031 11.6 9.75022 11.6913 9.78806C11.7827 9.8259 11.8608 9.88999 11.9157 9.97221C11.9707 10.0544 12 10.1511 12 10.25C12 10.3826 11.9473 10.5098 11.8536 10.6036C11.7598 10.6973 11.6326 10.75 11.5 10.75ZM14 10.75C13.9011 10.75 13.8044 10.7207 13.7222 10.6657C13.64 10.6108 13.5759 10.5327 13.5381 10.4413C13.5002 10.35 13.4903 10.2494 13.5096 10.1525C13.5289 10.0555 13.5765 9.96637 13.6464 9.89645C13.7164 9.82652 13.8055 9.7789 13.9025 9.75961C13.9994 9.74031 14.1 9.75022 14.1913 9.78806C14.2827 9.8259 14.3608 9.88999 14.4157 9.97221C14.4707 10.0544 14.5 10.1511 14.5 10.25C14.5 10.3826 14.4473 10.5098 14.3536 10.6036C14.2598 10.6973 14.1326 10.75 14 10.75Z" fill="white"/>
<path d="M16.645 13.5002C16.2448 13.1841 15.7492 13.0132 15.2392 13.0157C14.7293 13.0181 14.2353 13.1937 13.8382 13.5136C13.4412 13.8336 13.1646 14.279 13.0538 14.7767C12.943 15.2745 13.0045 15.7951 13.2284 16.2533C13.4522 16.7115 13.8251 17.0801 14.2859 17.2986C14.7466 17.5171 15.2679 17.5726 15.7644 17.456C16.2608 17.3395 16.7029 17.0577 17.0183 16.6569C17.3336 16.2562 17.5034 15.7602 17.4999 15.2502C17.4976 14.9131 17.4196 14.5808 17.2716 14.2779C17.1236 13.975 16.9095 13.7092 16.645 13.5002ZM15.9699 16.4002C15.9067 16.4485 15.8295 16.4749 15.7499 16.4752C15.69 16.4749 15.6311 16.4602 15.578 16.4323C15.5249 16.4045 15.4793 16.3643 15.4449 16.3152L14.9449 15.6202C14.8987 15.5562 14.8742 15.4792 14.8749 15.4002V14.4002C14.8749 14.3008 14.9145 14.2054 14.9848 14.1351C15.0551 14.0647 15.1505 14.0252 15.2499 14.0252C15.3494 14.0252 15.4448 14.0647 15.5151 14.1351C15.5854 14.2054 15.6249 14.3008 15.6249 14.4002V15.2802L16.0549 15.8802C16.112 15.9607 16.1351 16.0603 16.1192 16.1577C16.1033 16.255 16.0496 16.3421 15.9699 16.4002Z" fill="white"/>
</g>
<defs>
<clipPath id="clip0_132_5980">
<rect width="12" height="12" fill="white" transform="translate(6 6)"/>
</clipPath>
</defs>
</svg>
