<svg width="14" height="14" viewBox="0 0 14 14" fill="none" xmlns="http://www.w3.org/2000/svg">
<path d="M11.0596 3.52051H9.99125C9.986 3.69945 9.99519 4.06542 9.99125 4.24063C9.94619 5.61854 7.95185 5.6216 7.90678 4.24063V3.52051H5.24985C5.25335 3.69945 5.24722 4.06542 5.24985 4.24063C5.21703 5.56495 3.31435 5.64238 3.17172 4.3336C3.15531 4.1142 3.17041 3.7421 3.16538 3.52051H2.40719C2.35749 3.52033 2.30936 3.53787 2.27143 3.56998C2.2335 3.6021 2.20827 3.64668 2.20025 3.69573L0.880315 11.1761C0.87483 11.2064 0.876069 11.2375 0.883943 11.2672C0.891817 11.2969 0.906134 11.3246 0.92588 11.3482C0.945626 11.3718 0.970317 11.3907 0.998204 11.4037C1.02609 11.4167 1.05649 11.4234 1.08725 11.4233H9.77775C9.94903 11.4233 9.986 11.2566 10.0081 11.1212C10.0162 11.1015 11.2685 3.76835 11.2709 3.74648C11.2724 3.71764 11.2681 3.68879 11.2582 3.66166C11.2483 3.63453 11.233 3.60967 11.2133 3.58858C11.1936 3.56748 11.1698 3.55058 11.1434 3.53889C11.117 3.52719 11.0885 3.52094 11.0596 3.52051ZM9.15256 10.0145C9.14536 10.0649 9.12029 10.1109 9.08193 10.1442C9.04357 10.1776 8.99448 10.196 8.94366 10.1961H2.28469C2.2538 10.1958 2.22335 10.1887 2.19542 10.1755C2.1675 10.1623 2.14276 10.1432 2.1229 10.1196C2.10303 10.0959 2.08852 10.0682 2.08035 10.0384C2.07218 10.0086 2.07055 9.97743 2.07557 9.94695L2.81056 5.90051C2.81937 5.85147 2.8451 5.80707 2.88328 5.77506C2.92145 5.74304 2.96965 5.72543 3.01947 5.72529H9.52203C9.55245 5.7253 9.58251 5.73187 9.61015 5.74455C9.6378 5.75724 9.66238 5.77573 9.68223 5.79878C9.70208 5.82183 9.71673 5.84888 9.72517 5.8781C9.73361 5.90732 9.73566 5.93802 9.73116 5.9681L9.15256 10.0145ZM13.1209 11.1719L11.689 3.69157C11.6223 3.49207 10.3686 11.3544 10.3544 11.3809L11.4842 10.9775L12.8505 11.4128C12.8853 11.4231 12.9221 11.4244 12.9575 11.4166C12.993 11.4087 13.0258 11.3919 13.0529 11.3677C13.0799 11.3436 13.1004 11.3129 13.1123 11.2787C13.1242 11.2444 13.1272 11.2077 13.1209 11.1719Z" fill="#4E73DF"/>
<path d="M4.20794 4.89343C4.29349 4.89332 4.37819 4.87634 4.45718 4.84348C4.53618 4.81062 4.60792 4.76252 4.66832 4.70192C4.72871 4.64132 4.77658 4.56941 4.80917 4.49031C4.84177 4.41121 4.85845 4.32645 4.85828 4.2409C4.85916 4.06984 4.85828 3.22284 4.85828 3.22284C4.85828 3.05004 4.78964 2.88431 4.66745 2.76212C4.54526 2.63993 4.37954 2.57129 4.20673 2.57129C4.03393 2.57129 3.86821 2.63993 3.74602 2.76212C3.62383 2.88431 3.55519 3.05004 3.55519 3.22284C3.55519 3.22284 3.55453 4.06896 3.55519 4.2409C3.55542 4.41393 3.62427 4.5798 3.74664 4.70213C3.86901 4.82446 4.03491 4.89326 4.20794 4.89343ZM8.94694 4.89343C9.11993 4.8932 9.28577 4.82438 9.40809 4.70205C9.53041 4.57973 9.59924 4.41389 9.59947 4.2409C9.60012 4.06984 9.59947 3.22284 9.59947 3.22284C9.59947 3.05004 9.53082 2.88431 9.40863 2.76212C9.28645 2.63993 9.12072 2.57129 8.94792 2.57129C8.77512 2.57129 8.6094 2.63993 8.48721 2.76212C8.36502 2.88431 8.29637 3.05004 8.29637 3.22284C8.29637 3.22284 8.2955 4.06896 8.29637 4.2409C8.29623 4.32645 8.31295 4.4112 8.34557 4.49029C8.37819 4.56939 8.42608 4.64128 8.48649 4.70185C8.54691 4.76243 8.61867 4.81051 8.69768 4.84335C8.77668 4.87618 8.86138 4.89334 8.94694 4.89343ZM3.19403 6.14796L2.90266 7.75096H3.99444L4.28603 6.14796H3.19403ZM4.71259 6.14796L4.42122 7.75096H5.74312L6.01569 6.14796H4.71259ZM4.05372 9.77396H5.39903L5.67138 8.17315H4.34509L4.05372 9.77396ZM5.82756 9.77396H7.16456L7.42422 8.17315H6.10013L5.82756 9.77396ZM7.59112 9.77396H8.75903L8.98916 8.17315H7.85297L7.59112 9.77396ZM7.92056 7.75096H9.04822L9.27856 6.14796H8.18241L7.92056 7.75096ZM6.44444 6.14796L6.17188 7.75096H7.494L7.75366 6.14796H6.44444ZM2.53516 9.77396H3.62716L3.91853 8.17315H2.82675L2.53516 9.77396Z" fill="#4E73DF"/>
</svg>
