<svg width="22" height="22" viewBox="0 0 22 22" fill="none" xmlns="http://www.w3.org/2000/svg">
<rect width="22" height="22" rx="11" fill="#4E73DF"/>
<path d="M8.4162 8.62299C8.4162 7.94909 8.68391 7.30278 9.16043 6.82626C9.63695 6.34974 10.2833 6.08203 10.9572 6.08203C11.6311 6.08203 12.2774 6.34974 12.7539 6.82626C13.2304 7.30278 13.4981 7.94909 13.4981 8.62299C13.4981 9.29689 13.2304 9.9432 12.7539 10.4197C12.2774 10.8962 11.6311 11.1639 10.9572 11.1639C10.2833 11.1639 9.63695 10.8962 9.16043 10.4197C8.68391 9.9432 8.4162 9.29689 8.4162 8.62299ZM6.76953 14.9816C6.76953 14.1633 7.09459 13.3786 7.6732 12.8C8.25182 12.2213 9.03658 11.8963 9.85486 11.8963H12.0594C12.6434 11.8963 13.1894 12.0588 13.6547 12.3404C13.7955 12.4249 13.8085 12.6189 13.6926 12.7348L11.6743 14.753C11.3416 15.086 11.1447 15.5309 11.1218 16.001L11.111 16.2036C11.1075 16.273 11.0775 16.3384 11.0272 16.3862C10.9769 16.4341 10.9101 16.4609 10.8407 16.4609H8.24882C7.85649 16.4609 7.48023 16.3051 7.20281 16.0276C6.92538 15.7502 6.76953 15.3739 6.76953 14.9816ZM14.1709 13.7889C14.1457 13.7636 14.1158 13.7436 14.0829 13.73C14.05 13.7163 14.0147 13.7093 13.9791 13.7093C13.9435 13.7093 13.9082 13.7163 13.8753 13.73C13.8424 13.7436 13.8125 13.7636 13.7874 13.7889L12.249 15.3272C12.0586 15.5174 11.9459 15.7717 11.9327 16.0406L11.904 16.6337C11.9022 16.6703 11.9079 16.707 11.9208 16.7413C11.9336 16.7757 11.9532 16.8071 11.9786 16.8337C12.0039 16.8602 12.0344 16.8813 12.0681 16.8957C12.1018 16.9102 12.1381 16.9176 12.1748 16.9175H12.6813C12.9615 16.9174 13.2308 16.8087 13.4326 16.6142L15.0489 15.0574C15.0749 15.0325 15.0956 15.0026 15.1099 14.9695C15.1241 14.9365 15.1317 14.9009 15.132 14.8649C15.1324 14.8289 15.1255 14.7931 15.1119 14.7598C15.0983 14.7265 15.0782 14.6962 15.0527 14.6707L14.1709 13.7889ZM15.6615 14.1307C15.7536 14.2227 15.902 14.2227 15.9936 14.1307C16.1459 13.9783 16.2315 13.7717 16.2315 13.5562C16.2315 13.3408 16.1459 13.1341 15.9936 12.9818L15.869 12.8572C15.7935 12.7817 15.7039 12.7218 15.6053 12.6809C15.5067 12.6401 15.401 12.619 15.2943 12.619C15.1875 12.619 15.0818 12.6401 14.9832 12.6809C14.8846 12.7218 14.795 12.7817 14.7196 12.8572C14.6758 12.9012 14.6512 12.9608 14.6512 13.0229C14.6512 13.0851 14.6758 13.1447 14.7196 13.1887L15.6615 14.1307Z" fill="white"/>
</svg>
