<svg width="46" height="46" viewBox="0 0 46 46" fill="none" xmlns="http://www.w3.org/2000/svg">
<circle cx="28" cy="28" r="27.5" fill="#4E73DF" stroke="#D7DFF8"/>
<path d="M19.4584 20.0345C19.4584 18.1684 20.1998 16.3786 21.5194 15.059C22.839 13.7394 24.6287 12.998 26.4949 12.998C28.3611 12.998 30.1509 13.7394 31.4705 15.059C32.7901 16.3786 33.5314 18.1684 33.5314 20.0345C33.5314 21.9007 32.7901 23.6905 31.4705 25.0101C30.1509 26.3297 28.3611 27.071 26.4949 27.071C24.6287 27.071 22.839 26.3297 21.5194 25.0101C20.1998 23.6905 19.4584 21.9007 19.4584 20.0345ZM14.8984 37.643C14.8984 35.377 15.7986 33.2038 17.4009 31.6015C19.0032 29.9992 21.1764 29.099 23.4424 29.099H29.5474C31.1644 29.099 32.6764 29.549 33.9649 30.329C34.3549 30.563 34.3909 31.1 34.0699 31.421L28.4809 37.01C27.5596 37.9322 27.0142 39.1641 26.9509 40.466L26.9209 41.027C26.9113 41.2191 26.8283 41.4002 26.689 41.5328C26.5497 41.6654 26.3648 41.7394 26.1724 41.7395H18.9949C17.9085 41.7395 16.8665 41.308 16.0983 40.5397C15.33 39.7715 14.8984 38.7295 14.8984 37.643ZM35.3944 34.34C35.3248 34.2702 35.242 34.2148 35.1509 34.177C35.0598 34.1392 34.9621 34.1197 34.8634 34.1197C34.7648 34.1197 34.6671 34.1392 34.576 34.177C34.4849 34.2148 34.4021 34.2702 34.3324 34.34L30.0724 38.6C29.5452 39.1269 29.2329 39.8311 29.1964 40.5755L29.1169 42.218C29.1121 42.3195 29.1279 42.4209 29.1634 42.5161C29.1989 42.6113 29.2533 42.6983 29.3235 42.7718C29.3936 42.8453 29.4779 42.9038 29.5714 42.9437C29.6648 42.9836 29.7653 43.0042 29.8669 43.004H31.2694C32.0455 43.0037 32.7912 42.7026 33.3499 42.164L37.8259 37.853C37.8978 37.7839 37.9552 37.7012 37.9947 37.6096C38.0343 37.518 38.0551 37.4195 38.0561 37.3198C38.0571 37.22 38.0381 37.1211 38.0004 37.0288C37.9627 36.9364 37.907 36.8526 37.8364 36.782L35.3944 34.34ZM39.5224 35.2865C39.7774 35.5415 40.1884 35.5415 40.4419 35.2865C40.8637 34.8646 41.1007 34.2924 41.1007 33.6958C41.1007 33.0992 40.8637 32.527 40.4419 32.105L40.0969 31.76C39.888 31.551 39.6399 31.3851 39.3668 31.2719C39.0937 31.1588 38.801 31.1005 38.5054 31.1005C38.2098 31.1005 37.9171 31.1588 37.6441 31.2719C37.371 31.3851 37.1229 31.551 36.9139 31.76C36.7927 31.882 36.7246 32.047 36.7246 32.219C36.7246 32.3911 36.7927 32.5561 36.9139 32.678L39.5224 35.2865Z" fill="white"/>
</svg>
