<svg width="32" height="32" viewBox="0 0 32 32" fill="none" xmlns="http://www.w3.org/2000/svg">
<circle cx="16" cy="16" r="15.5" fill="#4E73DF" stroke="#D7DFF8"/>
<g clip-path="url(#clip0_132_7310)">
<path d="M11.6878 21.625C11.1006 21.6239 10.5284 21.4388 10.0519 21.0956C9.57539 20.7524 9.21846 20.2684 9.03133 19.7118L9.00508 19.6255C8.92107 19.3626 8.87733 19.0885 8.87533 18.8125V13.699L7.05583 19.7725C6.94447 20.2047 7.00718 20.6633 7.23047 21.0497C7.45376 21.4361 7.81979 21.7194 8.24983 21.8387L19.8471 24.9445C19.9918 24.982 20.1366 25 20.2791 25C21.0261 25 21.7086 24.5042 21.8998 23.7738L22.5756 21.625H11.6878ZM13.7503 13.75C14.5776 13.75 15.2503 13.0773 15.2503 12.25C15.2503 11.4227 14.5776 10.75 13.7503 10.75C12.9231 10.75 12.2503 11.4227 12.2503 12.25C12.2503 13.0773 12.9231 13.75 13.7503 13.75Z" fill="white"/>
<path d="M23.125 8.5H11.875C11.3779 8.5006 10.9013 8.69833 10.5498 9.04983C10.1983 9.40133 10.0006 9.8779 10 10.375V18.625C10 19.6585 10.8415 20.5 11.875 20.5H23.125C24.1585 20.5 25 19.6585 25 18.625V10.375C25 9.3415 24.1585 8.5 23.125 8.5ZM11.875 10H23.125C23.2245 10 23.3198 10.0395 23.3902 10.1098C23.4605 10.1802 23.5 10.2755 23.5 10.375V15.6993L21.1308 12.9348C21.0055 12.7909 20.851 12.6753 20.6776 12.5958C20.5042 12.5162 20.3158 12.4745 20.125 12.4735C19.9336 12.4745 19.7447 12.5174 19.5716 12.5991C19.3985 12.6809 19.2454 12.7995 19.123 12.9467L16.3375 16.2902L15.43 15.385C15.1832 15.1386 14.8487 15.0002 14.5 15.0002C14.1513 15.0002 13.8168 15.1386 13.57 15.385L11.5 17.4543V10.375C11.5 10.2755 11.5395 10.1802 11.6098 10.1098C11.6802 10.0395 11.7755 10 11.875 10Z" fill="white"/>
</g>
<defs>
<clipPath id="clip0_132_7310">
<rect width="18" height="18" fill="white" transform="translate(7 7)"/>
</clipPath>
</defs>
</svg>
