<svg width="52" height="52" viewBox="0 0 52 52" fill="none" xmlns="http://www.w3.org/2000/svg">
<circle cx="26" cy="26" r="25.5" stroke="#4E73DF"/>
<g clip-path="url(#clip0_132_4491)">
<path d="M19.6669 28.3729L18.875 31.3292L15.9806 31.3904C15.1156 29.786 14.625 27.9504 14.625 25.9998C14.625 24.1136 15.0837 22.3348 15.8969 20.7686H15.8975L18.4743 21.241L19.6031 23.8023C19.3668 24.4911 19.2381 25.2304 19.2381 25.9998C19.2381 26.8348 19.3894 27.6348 19.6669 28.3729Z" fill="#FBBB00"/>
<path d="M37.1762 23.875C37.3068 24.5631 37.3749 25.2737 37.3749 26C37.3749 26.8144 37.2893 27.6088 37.1262 28.375C36.5725 30.9825 35.1256 33.2594 33.1212 34.8706L33.1206 34.87L29.875 34.7044L29.4156 31.8369C30.7456 31.0569 31.785 29.8363 32.3325 28.375H26.25V23.875H37.1762Z" fill="#4E73DF"/>
<path d="M33.1205 34.8699L33.1211 34.8705C31.1717 36.4374 28.6955 37.3749 25.9998 37.3749C21.668 37.3749 17.9017 34.9537 15.9805 31.3905L19.6667 28.373C20.6273 30.9368 23.1005 32.7618 25.9998 32.7618C27.2461 32.7618 28.4136 32.4249 29.4155 31.8368L33.1205 34.8699Z" fill="#28B446"/>
<path d="M33.2602 17.2437L29.5752 20.2606C28.5384 19.6125 27.3127 19.2381 25.9996 19.2381C23.0346 19.2381 20.5152 21.1468 19.6027 23.8025L15.8971 20.7687H15.8965C17.7896 17.1187 21.6034 14.625 25.9996 14.625C28.7596 14.625 31.2902 15.6081 33.2602 17.2437Z" fill="#F14336"/>
</g>
<defs>
<clipPath id="clip0_132_4491">
<rect width="22.75" height="22.75" fill="white" transform="translate(14.625 14.625)"/>
</clipPath>
</defs>
</svg>
