<svg width="22" height="22" viewBox="0 0 22 22" fill="none" xmlns="http://www.w3.org/2000/svg">
<rect width="22" height="22" rx="11" fill="#4E73DF"/>
<path d="M15.625 6.5H6.37503C5.61652 6.5 5 7.11652 5 7.87503V14.125C5 14.8835 5.61652 15.5 6.37503 15.5H15.625C16.3835 15.5 17 14.8835 17 14.125V7.87503C17 7.11652 16.3835 6.5 15.625 6.5ZM8.75 8.49997C9.43902 8.49997 9.99997 9.06102 9.99997 9.75003C9.99997 10.439 9.43902 11 8.75 11C8.06098 11 7.50003 10.439 7.50003 9.75003C7.50003 9.06102 8.06098 8.49997 8.75 8.49997ZM11 13.125C11 13.332 10.832 13.5 10.625 13.5H6.875C6.668 13.5 6.5 13.332 6.5 13.125V12.875C6.5 12.1165 7.11652 11.5 7.87503 11.5H9.62497C10.3835 11.5 11 12.1165 11 12.875V13.125ZM15.125 13.5H12.375C12.168 13.5 12 13.332 12 13.125C12 12.918 12.168 12.75 12.375 12.75H15.125C15.332 12.75 15.5 12.918 15.5 13.125C15.5 13.332 15.332 13.5 15.125 13.5ZM15.125 11.5H12.375C12.168 11.5 12 11.332 12 11.125C12 10.918 12.168 10.75 12.375 10.75H15.125C15.332 10.75 15.5 10.918 15.5 11.125C15.5 11.332 15.332 11.5 15.125 11.5ZM15.125 9.5H12.375C12.168 9.5 12 9.332 12 9.125C12 8.918 12.168 8.75 12.375 8.75H15.125C15.332 8.75 15.5 8.918 15.5 9.125C15.5 9.332 15.332 9.5 15.125 9.5Z" fill="white"/>
</svg>
