<svg width="30" height="30" viewBox="0 0 30 30" fill="none" xmlns="http://www.w3.org/2000/svg">
<circle cx="15" cy="15" r="14.5" fill="white" stroke="#4E73DF"/>
<g clip-path="url(#clip0_132_5796)">
<path d="M20.7856 8.08671C20.5983 7.89945 20.2948 7.89952 20.1075 8.08671C19.9204 8.27393 19.9204 8.57746 20.1076 8.76468C21.4719 10.1289 22.2232 11.9428 22.2232 13.8721C22.2232 14.1369 22.4379 14.3515 22.7026 14.3515C22.9674 14.3515 23.182 14.1369 23.182 13.8721C23.182 11.6866 22.3309 9.63202 20.7856 8.08671ZM9.89271 8.08674C9.70545 7.89948 9.40196 7.89955 9.2147 8.08674C7.66943 9.63214 6.81836 11.6867 6.81836 13.8721C6.81836 14.1369 7.033 14.3515 7.29776 14.3515C7.56252 14.3515 7.77717 14.1369 7.77717 13.8721C7.77717 11.9429 8.52849 10.129 9.89271 8.76471C10.0799 8.57749 10.0799 8.27396 9.89271 8.08674ZM18.6551 9.53895C18.4679 9.72617 18.4679 10.0297 18.6551 10.217C19.6315 11.1932 20.1692 12.4913 20.1692 13.8721C20.1692 14.1369 20.3838 14.3515 20.6486 14.3515C20.9134 14.3515 21.128 14.1369 21.128 13.8721C21.128 12.2352 20.4905 10.6963 19.3331 9.53891C19.1458 9.35172 18.8423 9.35176 18.6551 9.53895ZM11.345 9.53917C11.1578 9.35198 10.8543 9.35201 10.667 9.5392C9.5097 10.6967 8.87232 12.2355 8.87232 13.8721C8.87232 14.1369 9.08699 14.3515 9.35172 14.3515C9.61651 14.3515 9.83112 14.1369 9.83112 13.8721C9.83112 12.4916 10.3688 11.1935 11.345 10.2172C11.5322 10.0299 11.5322 9.72636 11.345 9.53917ZM19.0741 17.3534V14.8991C19.0741 14.0039 18.789 13.1544 18.2498 12.4425C17.7991 11.8476 17.1845 11.3827 16.494 11.1092C16.3978 10.3706 15.7646 9.79827 15.0002 9.79827C14.2358 9.79827 13.6025 10.3706 13.5064 11.1092C12.8159 11.3827 12.2012 11.8476 11.7506 12.4425C11.2113 13.1544 10.9263 14.0039 10.9263 14.8991V17.3534L9.94995 19.3062C9.91341 19.3793 9.89615 19.4605 9.89983 19.5421C9.9035 19.6238 9.92798 19.7031 9.97094 19.7726C10.0139 19.8421 10.0739 19.8995 10.1453 19.9393C10.2167 19.9791 10.297 20 10.3787 20H19.6216C19.7034 20 19.7837 19.9791 19.8551 19.9393C19.9265 19.8995 19.9865 19.8422 20.0295 19.7726C20.0725 19.7031 20.0969 19.6238 20.1006 19.5421C20.1043 19.4605 20.087 19.3793 20.0504 19.3062L19.0741 17.3534ZM15.0002 22.054C15.8633 22.054 16.6265 21.6198 17.0841 20.9587H12.9162C13.3738 21.6198 14.1371 22.054 15.0002 22.054Z" fill="#4E73DF"/>
</g>
<defs>
<clipPath id="clip0_132_5796">
<rect width="16.3636" height="16.3636" fill="white" transform="translate(6.81836 6.81836)"/>
</clipPath>
</defs>
</svg>
