<svg width="24" height="24" viewBox="0 0 24 24" fill="none" xmlns="http://www.w3.org/2000/svg">
<circle cx="12" cy="12" r="12" fill="#4E73DF"/>
<path d="M9.99297 6.75C9.78672 6.75 9.61797 6.91875 9.61797 7.125V7.46625H9.03297C7.97172 7.46625 7.10547 8.32875 7.10547 9.39V15.3263C7.10547 16.3875 7.97172 17.25 9.03297 17.25H14.9655C16.0267 17.25 16.893 16.3875 16.893 15.3263V9.39C16.893 8.32875 16.0267 7.46625 14.9655 7.46625H14.3805V7.125C14.3805 6.91875 14.2117 6.75 14.0055 6.75C13.7955 6.75 13.6305 6.91875 13.6305 7.125V7.46625H10.368V7.125C10.368 6.91875 10.203 6.75 9.99297 6.75ZM10.6155 10.8263C10.6509 10.8219 10.6847 10.8086 10.7135 10.7876C10.7424 10.7666 10.7654 10.7386 10.7805 10.7063L11.1292 9.9975C11.2942 9.66375 11.628 9.4575 11.9992 9.4575C12.3705 9.4575 12.7042 9.66375 12.8692 9.9975L13.218 10.7063C13.2517 10.7738 13.3117 10.8187 13.383 10.8263L14.1667 10.9425C14.538 10.995 14.838 11.2462 14.9505 11.6025C15.0667 11.955 14.973 12.3375 14.7067 12.5963L14.1405 13.1475C14.1143 13.172 14.0948 13.2028 14.0837 13.2369C14.0725 13.2709 14.0701 13.3073 14.0767 13.3425L14.208 14.1225C14.2717 14.49 14.1255 14.8538 13.8255 15.0712C13.653 15.195 13.4542 15.2587 13.2555 15.2587C13.1017 15.2587 12.9442 15.2212 12.8017 15.1462L12.1005 14.7787C12.0693 14.7621 12.0345 14.7535 11.9992 14.7535C11.9639 14.7535 11.9291 14.7621 11.898 14.7787L11.1967 15.1462C10.8667 15.3187 10.4767 15.2888 10.173 15.0712C10.0263 14.9653 9.9125 14.8199 9.84482 14.6521C9.77715 14.4842 9.7583 14.3006 9.79047 14.1225L9.92172 13.3425C9.9283 13.3073 9.92591 13.2709 9.91477 13.2369C9.90363 13.2028 9.8841 13.172 9.85797 13.1475L9.29172 12.5963C9.16152 12.4704 9.06954 12.3104 9.02641 12.1346C8.98328 11.9587 8.99076 11.7743 9.04797 11.6025C9.16047 11.2462 9.46047 10.995 9.83172 10.9425L10.6155 10.8263Z" fill="white"/>
<path d="M9.76098 11.8345C9.74973 11.872 9.72723 11.9733 9.81723 12.0595L10.3835 12.6108C10.6122 12.832 10.7172 13.1545 10.661 13.4695L10.5297 14.2495C10.5072 14.3695 10.5822 14.4408 10.616 14.4633C10.6497 14.4895 10.7397 14.5383 10.8485 14.482L11.5497 14.1145C11.6881 14.0404 11.8427 14.0016 11.9997 14.0016C12.1567 14.0016 12.3113 14.0404 12.4497 14.1145L13.151 14.482C13.2597 14.5383 13.3497 14.4895 13.3835 14.4633C13.4172 14.4408 13.4922 14.3695 13.4697 14.2495L13.3385 13.4695C13.2822 13.1545 13.3872 12.832 13.616 12.6108L14.1822 12.0595C14.2722 11.9733 14.2497 11.872 14.2385 11.8345C14.2274 11.7948 14.2047 11.7593 14.1733 11.7325C14.1419 11.7058 14.1032 11.6891 14.0622 11.6845L13.2785 11.5683C13.1228 11.5462 12.9749 11.4865 12.8474 11.3944C12.72 11.3022 12.617 11.1805 12.5472 11.0395L12.1985 10.327C12.1422 10.2183 12.041 10.207 11.9997 10.207C11.9585 10.207 11.8572 10.2183 11.801 10.327L11.4522 11.0395C11.3825 11.1805 11.2794 11.3022 11.152 11.3944C11.0246 11.4865 10.8767 11.5462 10.721 11.5683L9.93723 11.6845C9.81723 11.6995 9.77223 11.7933 9.76098 11.8345Z" fill="white"/>
</svg>
