<svg width="28" height="28" viewBox="0 0 28 28" fill="none" xmlns="http://www.w3.org/2000/svg">
<circle cx="14" cy="14" r="14" fill="#4E73DF"/>
<g clip-path="url(#clip0_132_5646)">
<path d="M10.9952 6.27441L8.28711 8.98223H10.9952V6.27441Z" fill="white"/>
<path d="M11.9509 11.6838V15.8494C11.9509 16.9069 12.8112 17.7672 13.8687 17.7672H19.278V20.5938C19.278 20.8525 19.068 21.0625 18.8093 21.0625H10.7793L11.8896 19.6931C12.2109 19.2969 12.2768 18.7431 12.0571 18.2828C11.8634 17.8769 11.4737 17.5975 11.0346 17.5375V15.7403C11.0346 15.0066 10.4377 14.41 9.7043 14.41H8.01367V9.91969H11.4649C11.7237 9.91969 11.9337 9.70969 11.9337 9.45094V6H18.8093C19.068 6 19.278 6.21 19.278 6.46875V9.76594H13.8687C12.8112 9.76594 11.9509 10.6263 11.9509 11.6838Z" fill="white"/>
<path d="M15.3971 13.2222C15.3971 13.435 15.2105 13.615 14.9902 13.615C14.9018 13.615 14.7493 13.6157 14.6096 13.6166C14.6077 13.2066 14.609 13.3663 14.6074 12.8291H14.9902C15.2105 12.8291 15.3971 13.0091 15.3971 13.2222Z" fill="white"/>
<path d="M17.5034 12.8288H17.1084C17.1091 13.1359 17.1097 13.5841 17.1097 13.7634C17.1097 13.9769 17.1109 14.4063 17.1119 14.7022C17.2603 14.7013 17.4253 14.7 17.5187 14.6984C17.9897 14.69 18.2006 14.2244 18.2006 13.7663C18.2006 13.3131 18.0175 12.8288 17.5034 12.8288ZM17.5034 12.8288H17.1084C17.1091 13.1359 17.1097 13.5841 17.1097 13.7634C17.1097 13.9769 17.1109 14.4063 17.1119 14.7022C17.2603 14.7013 17.4253 14.7 17.5187 14.6984C17.9897 14.69 18.2006 14.2244 18.2006 13.7663C18.2006 13.3131 18.0175 12.8288 17.5034 12.8288ZM21.0194 10.7031H13.8681C13.3275 10.7031 12.8878 11.1428 12.8878 11.6834V15.8491C12.8878 16.3897 13.3275 16.8294 13.8681 16.8294H21.0194C21.56 16.8294 22 16.3897 22 15.8491V11.6834C22 11.1428 21.56 10.7031 21.0194 10.7031ZM14.9903 14.2397C14.9016 14.2397 14.7472 14.2403 14.6066 14.2413V15.0163C14.6066 15.1888 14.4669 15.3288 14.2941 15.3288C14.1216 15.3288 13.9816 15.1888 13.9816 15.0163V12.5163C13.9816 12.3463 14.1197 12.2038 14.2941 12.2038H14.9903C15.5591 12.2038 16.0222 12.6603 16.0222 13.2219C16.0222 13.7831 15.5591 14.2397 14.9903 14.2397ZM17.5297 15.3231C17.3278 15.3266 16.8231 15.3288 16.8016 15.3288C16.6353 15.3288 16.4828 15.2031 16.4828 14.9756V12.5169C16.4825 12.3441 16.6225 12.2038 16.7953 12.2038H17.5034C18.2941 12.2038 18.8256 12.8316 18.8256 13.7663C18.8256 14.6553 18.2803 15.31 17.5297 15.3231ZM20.5131 13.43C20.6856 13.43 20.8256 13.57 20.8256 13.7425C20.8256 13.915 20.6856 14.055 20.5131 14.055H19.8928V15.0163C19.8928 15.1888 19.7531 15.3288 19.5803 15.3288C19.4078 15.3288 19.2678 15.1888 19.2678 15.0163V12.5163C19.2678 12.3438 19.4078 12.2038 19.5803 12.2038H20.5937C20.7662 12.2038 20.9062 12.3438 20.9062 12.5163C20.9062 12.6888 20.7662 12.8288 20.5937 12.8288H19.8928V13.43H20.5131ZM17.5034 12.8288H17.1084C17.1091 13.1359 17.1097 13.5841 17.1097 13.7634C17.1097 13.9769 17.1109 14.4063 17.1119 14.7022C17.2603 14.7013 17.4253 14.7 17.5187 14.6984C17.9897 14.69 18.2006 14.2244 18.2006 13.7663C18.2006 13.3131 18.0175 12.8288 17.5034 12.8288ZM11.1608 19.1024L8.92943 21.8544C8.89257 21.8998 8.84605 21.9364 8.79326 21.9615C8.74047 21.9866 8.68273 21.9997 8.62426 21.9997C8.56579 21.9997 8.50805 21.9866 8.45526 21.9615C8.40247 21.9364 8.35595 21.8998 8.31909 21.8544L6.08768 19.1024C6.04096 19.0448 6.01151 18.9751 6.00275 18.9014C5.99399 18.8278 6.00627 18.7531 6.03818 18.6861C6.07013 18.6192 6.12038 18.5626 6.18312 18.5231C6.24587 18.4835 6.31853 18.4625 6.39271 18.4625H7.15206V15.7399C7.15206 15.5231 7.32774 15.3472 7.54481 15.3472H9.70368C9.92074 15.3472 10.0964 15.5231 10.0964 15.7399V18.4625H10.8558C11.0071 18.4625 11.1451 18.5494 11.2103 18.6861C11.2422 18.7531 11.2545 18.8278 11.2458 18.9014C11.237 18.9751 11.2076 19.0448 11.1608 19.1024Z" fill="white"/>
</g>
<defs>
<clipPath id="clip0_132_5646">
<rect width="16" height="16" fill="white" transform="translate(6 6)"/>
</clipPath>
</defs>
</svg>
