<svg width="24" height="24" viewBox="0 0 24 24" fill="none" xmlns="http://www.w3.org/2000/svg">
<circle cx="12" cy="12" r="12" fill="#4E73DF"/>
<path d="M11.6134 13.5079H15.5206V12.4013C15.5206 11.7878 14.3062 11.016 13.4236 10.6037L12.5732 13.0243C12.4578 12.3324 12.1377 11.5465 12.1377 11.5465L12.4808 11.2848C12.4808 10.9776 12.048 10.6369 12.048 10.6369C12.048 10.6369 11.6128 10.9464 11.6128 11.2589L11.9511 11.5507C11.9511 11.5507 11.5872 12.4058 11.4886 13.1171L10.5668 10.6037C9.65669 11.0241 8.61775 11.7168 8.61775 12.4013V13.5079H11.4639H11.6134ZM10.3259 8.40992C10.3269 8.41929 10.3276 8.43035 10.3289 8.43954C10.4294 9.15428 11.2826 10.2456 12.1239 10.2254C12.9125 10.2063 13.6902 9.12228 13.8258 8.44603C13.8288 8.43149 13.8308 8.41412 13.8336 8.39968C14.0337 8.33664 14.1812 8.11382 14.1812 7.87771C14.1812 7.7034 14.0444 7.52059 13.9155 7.42614C13.9167 7.41965 13.9227 7.38564 13.9222 7.3839C14.212 5.8378 13.2513 5.19922 12.1862 5.19922C11.1315 5.19922 10.0569 5.82733 10.2852 7.38701C10.0958 7.46363 9.95699 7.68292 9.95699 7.89504C9.95713 8.15776 10.1179 8.37545 10.3259 8.40992ZM11.272 6.52868C11.7852 7.35008 12.449 7.55817 13.7728 7.48937C12.4161 7.78793 11.6689 7.7082 11.3243 6.9487C11.171 7.56374 10.9515 7.62656 10.4787 7.4917C10.9505 7.47456 10.938 7.34893 11.272 6.52868ZM17.1055 13.9651H7.03292C6.64339 13.9651 6.33203 14.3088 6.33203 14.6984V15.5843C6.33203 15.9739 6.64339 16.2965 7.03292 16.2965H8.01226L8.57624 19.1308L10.4219 19.1172C10.3882 18.9738 10.3682 18.8348 10.3682 18.6925C10.3682 17.7783 11.1094 17.0306 12.0235 17.0306C12.9375 17.0306 13.6787 17.7817 13.6787 18.6958C13.6787 18.8381 13.6588 18.9738 13.625 19.1172L15.3069 19.1308L15.8709 16.2965H17.1055C17.495 16.2965 17.8063 15.9739 17.8063 15.5843V14.6984C17.8063 14.3088 17.495 13.9651 17.1055 13.9651Z" fill="white"/>
</svg>
