<svg width="13" height="13" viewBox="0 0 13 13" fill="none" xmlns="http://www.w3.org/2000/svg">
<path d="M6.34133 12.2772C6.17287 12.2782 6.00794 12.229 5.86756 12.1358C5.72718 12.0427 5.61771 11.9099 5.55312 11.7543C5.48852 11.5987 5.47171 11.4274 5.50485 11.2623C5.53799 11.0971 5.61956 10.9455 5.73917 10.8269L10.2342 6.34039L5.73917 1.85388C5.60022 1.69163 5.52762 1.48293 5.53586 1.26948C5.54411 1.05603 5.63259 0.853552 5.78364 0.702508C5.93468 0.551464 6.13716 0.462979 6.35061 0.454734C6.56406 0.446489 6.77276 0.519093 6.93501 0.658036L12.0237 5.74671C12.1816 5.90562 12.2703 6.12057 12.2703 6.34463C12.2703 6.56869 12.1816 6.78365 12.0237 6.94255L6.93501 12.0312C6.77704 12.1879 6.56382 12.2762 6.34133 12.2772Z" fill="#4E73DF"/>
<path d="M1.25344 12.2774C1.08498 12.2784 0.920048 12.2292 0.779669 12.1361C0.639289 12.043 0.529822 11.9101 0.465224 11.7546C0.400626 11.599 0.383824 11.4277 0.41696 11.2625C0.450095 11.0974 0.531667 10.9458 0.651276 10.8272L5.14627 6.34065L0.651276 1.85413C0.491573 1.69443 0.401853 1.47783 0.401853 1.25197C0.401853 1.02612 0.491573 0.809516 0.651276 0.649814C0.810978 0.490111 1.02758 0.400391 1.25344 0.400391C1.47929 0.400391 1.69589 0.490111 1.8556 0.649814L6.94427 5.73849C7.10223 5.8974 7.1909 6.11235 7.1909 6.33641C7.1909 6.56047 7.10223 6.77542 6.94427 6.93433L1.8556 12.023C1.77705 12.1031 1.68338 12.1669 1.58001 12.2106C1.47665 12.2542 1.36565 12.277 1.25344 12.2774Z" fill="#4E73DF"/>
</svg>
