<svg width="24" height="24" viewBox="0 0 24 24" fill="none" xmlns="http://www.w3.org/2000/svg">
<circle cx="12" cy="12" r="12" fill="#4E73DF"/>
<path d="M14 7.5V5.065C14.2439 5.13276 14.4664 5.26166 14.6465 5.4395L16.5605 7.3535C16.7386 7.53351 16.8677 7.75605 16.9355 8H14.5C14.3674 7.99987 14.2403 7.94715 14.1466 7.85341C14.0529 7.75967 14.0001 7.63257 14 7.5ZM17 9V17.5C16.9996 17.8977 16.8414 18.279 16.5602 18.5602C16.279 18.8414 15.8977 18.9996 15.5 19H8.5C8.1023 18.9996 7.721 18.8414 7.43978 18.5602C7.15856 18.279 7.0004 17.8977 7 17.5V6.5C7.0004 6.1023 7.15856 5.721 7.43978 5.43978C7.721 5.15856 8.1023 5.0004 8.5 5H13V7.5C13.0004 7.8977 13.1586 8.279 13.4398 8.56022C13.721 8.84144 14.1023 8.9996 14.5 9H17ZM9.5 14.5C9.5 14.4011 9.47068 14.3044 9.41573 14.2222C9.36079 14.14 9.2827 14.0759 9.19134 14.0381C9.09998 14.0002 8.99945 13.9903 8.90245 14.0096C8.80546 14.0289 8.71637 14.0765 8.64645 14.1464C8.57652 14.2164 8.5289 14.3055 8.50961 14.4025C8.49031 14.4994 8.50022 14.6 8.53806 14.6913C8.5759 14.7827 8.63999 14.8608 8.72221 14.9157C8.80444 14.9707 8.90111 15 9 15C9.13261 15 9.25979 14.9473 9.35355 14.8536C9.44732 14.7598 9.5 14.6326 9.5 14.5ZM9.5 12.5C9.5 12.4011 9.47068 12.3044 9.41573 12.2222C9.36079 12.14 9.2827 12.0759 9.19134 12.0381C9.09998 12.0002 8.99945 11.9903 8.90245 12.0096C8.80546 12.0289 8.71637 12.0765 8.64645 12.1464C8.57652 12.2164 8.5289 12.3055 8.50961 12.4025C8.49031 12.4994 8.50022 12.6 8.53806 12.6913C8.5759 12.7827 8.63999 12.8608 8.72221 12.9157C8.80444 12.9707 8.90111 13 9 13C9.13261 13 9.25979 12.9473 9.35355 12.8536C9.44732 12.7598 9.5 12.6326 9.5 12.5ZM9.5 10.5C9.5 10.4011 9.47068 10.3044 9.41573 10.2222C9.36079 10.14 9.2827 10.0759 9.19134 10.0381C9.09998 10.0002 8.99945 9.99031 8.90245 10.0096C8.80546 10.0289 8.71637 10.0765 8.64645 10.1464C8.57652 10.2164 8.5289 10.3055 8.50961 10.4025C8.49031 10.4994 8.50022 10.6 8.53806 10.6913C8.5759 10.7827 8.63999 10.8608 8.72221 10.9157C8.80444 10.9707 8.90111 11 9 11C9.13261 11 9.25979 10.9473 9.35355 10.8536C9.44732 10.7598 9.5 10.6326 9.5 10.5ZM15.5 14.5C15.5 14.3674 15.4473 14.2402 15.3536 14.1464C15.2598 14.0527 15.1326 14 15 14H10.5C10.3674 14 10.2402 14.0527 10.1464 14.1464C10.0527 14.2402 10 14.3674 10 14.5C10 14.6326 10.0527 14.7598 10.1464 14.8536C10.2402 14.9473 10.3674 15 10.5 15H15C15.1326 15 15.2598 14.9473 15.3536 14.8536C15.4473 14.7598 15.5 14.6326 15.5 14.5ZM15.5 12.5C15.5 12.3674 15.4473 12.2402 15.3536 12.1464C15.2598 12.0527 15.1326 12 15 12H10.5C10.3674 12 10.2402 12.0527 10.1464 12.1464C10.0527 12.2402 10 12.3674 10 12.5C10 12.6326 10.0527 12.7598 10.1464 12.8536C10.2402 12.9473 10.3674 13 10.5 13H15C15.1326 13 15.2598 12.9473 15.3536 12.8536C15.4473 12.7598 15.5 12.6326 15.5 12.5ZM15.5 10.5C15.5 10.3674 15.4473 10.2402 15.3536 10.1464C15.2598 10.0527 15.1326 10 15 10H10.5C10.3674 10 10.2402 10.0527 10.1464 10.1464C10.0527 10.2402 10 10.3674 10 10.5C10 10.6326 10.0527 10.7598 10.1464 10.8536C10.2402 10.9473 10.3674 11 10.5 11H15C15.1326 11 15.2598 10.9473 15.3536 10.8536C15.4473 10.7598 15.5 10.6326 15.5 10.5Z" fill="white"/>
</svg>
