<svg width="30" height="30" viewBox="0 0 30 30" fill="none" xmlns="http://www.w3.org/2000/svg">
<rect width="30" height="30" rx="15" fill="#4E73DF"/>
<path d="M20.0646 21.5484H16.2027V17.6461H17.479C17.8026 17.6461 17.9939 17.2783 17.8026 17.0135L15.32 13.5783C15.1618 13.3576 14.8345 13.3576 14.6763 13.5783L12.1937 17.0135C12.0025 17.2783 12.19 17.6461 12.5174 17.6461H13.7936V21.5484H9.46833C7.53739 21.4418 6 19.6359 6 17.6792C6 16.3294 6.73192 15.1524 7.81692 14.5161C7.71761 14.2477 7.66612 13.9608 7.66612 13.6592C7.66612 12.2799 8.78055 11.1655 10.1598 11.1655C10.4577 11.1655 10.7446 11.217 11.0131 11.3163C11.8112 9.62445 13.5325 8.45117 15.5333 8.45117C18.1226 8.45485 20.2558 10.4373 20.4986 12.964C22.4884 13.3061 24 15.1488 24 17.2342C24 19.463 22.264 21.394 20.0646 21.5484Z" fill="white"/>
</svg>
